<?xml version="1.0" standalone="no"?><!DOCTYPE svg PUBLIC "-//W3C//DTD SVG 1.1//EN" "http://www.w3.org/Graphics/SVG/1.1/DTD/svg11.dtd"><svg t="1620737790380" class="icon" viewBox="0 0 1024 1024" version="1.1" xmlns="http://www.w3.org/2000/svg" p-id="4541" data-spm-anchor-id="a313x.7781069.0.i1" xmlns:xlink="http://www.w3.org/1999/xlink" width="200" height="200"><defs><style type="text/css"></style></defs><path d="M770.6 743H253.4c-5.5 0-10-4.5-10-10V128.2c0-5.5 4.5-10 10-10h517.2c5.5 0 10 4.5 10 10V733c0 5.5-4.5 10-10 10z" fill="#E1F5FE" p-id="4542" data-spm-anchor-id="a313x.7781069.0.i2" class="selected"></path><path d="M770.6 763H253.4c-16.5 0-30-13.5-30-30V128.2c0-16.5 13.5-30 30-30h517.2c16.5 0 30 13.5 30 30V733c0 16.5-13.5 30-30 30z m-507.2-40h497.2V138.2H263.4V723z" fill="#03A9F4" p-id="4543"></path><path d="M433.2 343.9h-85v-22.6h28.4v-87.1l-29.2 6.6v-23.3l57.6-12.1v115.9h28.2v22.6z" fill="#546E7A" p-id="4544"></path><path d="M436.2 346.9h-91v-28.6h28.4V238l-29.2 6.6v-29.5l63.6-13.4v116.6h28.2v28.6z m-85-6h79v-16.6H402V209.1l-51.6 10.8V237l29.2-6.6v93.9h-28.4v16.6zM458.9 278.1c0-23.6 4.3-41.5 13-54 8.7-12.4 21.2-18.6 37.6-18.6 31.3 0 46.9 23.1 46.9 69.4 0 22.8-4.2 40.4-12.7 52.8s-20.8 18.6-36.8 18.6c-32.1 0-48-22.8-48-68.2z m28.7-0.7c0 31.4 6.7 47.1 20.1 47.1 13.2 0 19.8-16.2 19.8-48.5 0-32.5-6.4-48.7-19.2-48.7-13.8 0-20.7 16.7-20.7 50.1z" fill="#546E7A" p-id="4545"></path><path d="M506.9 349.3c-33.8 0-51-24-51-71.2 0-24.4 4.4-42.6 13.5-55.7 9.3-13.2 22.7-19.9 40.1-19.9 33.1 0 49.9 24.4 49.9 72.4 0 23.4-4.5 41.7-13.2 54.5-9.1 13.2-22.3 19.9-39.3 19.9z m2.6-140.8c-15.5 0-27 5.7-35.1 17.3-8.3 11.9-12.5 29.5-12.5 52.3 0 43.9 14.7 65.2 45 65.2 15.1 0 26.3-5.7 34.3-17.3 8.1-11.8 12.2-29 12.2-51.1 0-44.7-14.4-66.4-43.9-66.4z m-1.8 119c-8 0-14-4.6-17.8-13.6-3.5-8.3-5.3-20.2-5.3-36.5 0-17.3 1.8-29.9 5.4-38.7 3.9-9.5 10.1-14.4 18.3-14.4 14.9 0 22.2 16.9 22.2 51.7 0 16.7-1.7 29-5.2 37.5-3.8 9.3-9.7 14-17.6 14z m0.6-97.2c-11.7 0-17.7 15.8-17.7 47.1 0 29.3 5.8 44.1 17.1 44.1 13.9 0 16.8-24.7 16.8-45.5s-2.8-45.7-16.2-45.7z" fill="#546E7A" p-id="4546"></path><path d="M578.9 278.1c0-23.6 4.3-41.5 13-54 8.7-12.4 21.2-18.6 37.6-18.6 31.3 0 46.9 23.1 46.9 69.4 0 22.8-4.2 40.4-12.7 52.8s-20.8 18.6-36.8 18.6c-32 0-48-22.8-48-68.2z m28.7-0.7c0 31.4 6.7 47.1 20.1 47.1 13.2 0 19.8-16.2 19.8-48.5 0-32.5-6.4-48.7-19.2-48.7-13.8 0-20.7 16.7-20.7 50.1z" fill="#546E7A" p-id="4547"></path><path d="M626.9 349.3c-33.8 0-51-24-51-71.2 0-24.4 4.4-42.6 13.5-55.7 9.3-13.2 22.7-19.9 40.1-19.9 33.1 0 49.9 24.4 49.9 72.4 0 23.4-4.5 41.7-13.2 54.5-9.1 13.2-22.3 19.9-39.3 19.9z m2.6-140.8c-15.5 0-27 5.7-35.1 17.3-8.3 11.9-12.5 29.5-12.5 52.3 0 43.9 14.7 65.2 45 65.2 15.1 0 26.3-5.7 34.3-17.3 8.1-11.8 12.2-29 12.2-51.1 0-44.7-14.4-66.4-43.9-66.4z m-1.8 119c-8 0-14-4.6-17.8-13.6-3.5-8.3-5.3-20.2-5.3-36.5 0-17.3 1.8-29.9 5.4-38.7 3.9-9.5 10.1-14.4 18.3-14.4 14.9 0 22.2 16.9 22.2 51.7 0 16.7-1.7 29-5.2 37.5-3.8 9.3-9.7 14-17.6 14z m0.6-97.2c-11.7 0-17.7 15.8-17.7 47.1 0 29.3 5.8 44.1 17.1 44.1 13.9 0 16.8-24.7 16.8-45.5s-2.8-45.7-16.2-45.7z" fill="#546E7A" p-id="4548"></path><path d="M680.9 454.8H343.1v-56.9h337.8v56.9zM536.2 499H343.8v56.9h192.3V499h0.1z" fill="#546E7A" p-id="4549" data-spm-anchor-id="a313x.7781069.0.i0" class=""></path><path d="M578.2 665.9c-48-1.3-29.4 0.6-42.5 0-7.2-0.3-13.2-1.5-20.4-1.9-14.4-0.7-28.9-5.7-62-18-51.7-19.2-118.4-66.2-143.1-66.2l59.5 156.6c8.1 12.3 63.7 57.7 90.6 57.7h175c0.4 0 71.5-4.3 71.5-64.1-0.1-54.4-19.3-61.2-128.6-64.1z" fill="#FFFFFF" p-id="4550"></path><path d="M919.5 637.9c-12.6-16.3-40.8-30-98.1 3.9 5.4-23.8-13.6-38.6-36-38.6-19.7 0-42.9 5.1-61.2 23.8-26.4-34.8-53.5-30.6-106.3 2.1-20.1 12.5-37.8 23.2-51 30.7-3.5 2-6.3 3.4-9.2 5 5.2 1.1 10.5 2 16.2 2 74.1 0 132.6 0 132.6 64.3 0 49.3-57.3 63.7-87.8 64.2H481.5c-56.6 0-111.9-59-111.9-59s66.3 40.4 112.8 40.4l155.5 0.6c0.3 0 45.9-13.1 44.6-42.7-1.2-28.5-19.1-47.7-104.7-47.7-55.8 0-112.8-25.4-112.8-25.4s-59.9-36.9-77.2-47.8c-41.1-25.6-73.8-50-145.3-21.7C197.2 610 98 656.2 98 656.2L189.4 859l46.7-30.2c25.8-16.4 40.1-19.2 73.4-2 32.2 16.5 131.3 68.1 156.2 80.2 76.1 36.9 108.8 3.8 145.6-17.4 31.4-18.1 253.7-165.3 277-181.9 36.4-25.7 47.9-48.2 31.2-69.8z" fill="#FFB74D" p-id="4551" data-spm-anchor-id="a313x.7781069.0.i3"></path></svg>