<?xml version="1.0" encoding="utf-8"?>
<!-- Generator: Adobe Illustrator 25.0.0, SVG Export Plug-In . SVG Version: 6.00 Build 0)  -->
<svg version="1.1" id="图层_1" xmlns="http://www.w3.org/2000/svg" xmlns:xlink="http://www.w3.org/1999/xlink" x="0px" y="0px"
	 xml:space="preserve">
<style type="text/css">
	.st0{fill:none;}
	.st1{fill:#F8E9DC;}
	.st2{fill:#FFFFFF;stroke:#000000;stroke-width:2.052;stroke-linecap:round;stroke-linejoin:bevel;}
	.st3{fill:#DCC6B0;}
	.st4{fill:#040606;}
	.st5{fill:#4B89CF;}
	.st6{clip-path:url(#SVGID_2_);}
	.st7{clip-path:url(#SVGID_4_);}
	.st8{fill:#416FBF;}
	.st9{clip-path:url(#SVGID_6_);}
	.st10{clip-path:url(#SVGID_8_);}
	.st11{clip-path:url(#SVGID_10_);}
	.st12{clip-path:url(#SVGID_12_);}
	.st13{clip-path:url(#SVGID_14_);}
	.st14{clip-path:url(#SVGID_16_);}
	.st15{clip-path:url(#SVGID_18_);}
	.st16{clip-path:url(#SVGID_20_);}
	.st17{clip-path:url(#SVGID_22_);}
	.st18{clip-path:url(#SVGID_24_);}
	.st19{clip-path:url(#SVGID_26_);}
	.st20{clip-path:url(#SVGID_28_);}
	.st21{clip-path:url(#SVGID_30_);}
	.st22{clip-path:url(#SVGID_32_);}
	.st23{fill:#EF7F88;}
	.st24{fill:#F3A01D;}
	.st25{fill:#1F2536;}
	.st26{fill:#EA5A64;}
	.st27{clip-path:url(#SVGID_34_);}
	.st28{fill:#F79EAA;}
	.st29{fill:#1D375E;}
	.st30{clip-path:url(#SVGID_36_);}
	.st31{fill:#FBF4EF;}
	.st32{fill:#25549B;}
	.st33{fill:#DB5D4A;}
	.st34{fill:#D23A34;}
	.st35{clip-path:url(#SVGID_38_);}
	.st36{fill:#F25545;}
	.st37{fill:#F794B6;}
	.st38{fill:url(#SVGID_41_);}
	.st39{fill:url(#SVGID_42_);}
	.st40{font-family:'PingFangSC-';}
	.st41{font-size:12px;}
	.st42{fill:none;stroke:#000000;stroke-width:0.25;stroke-miterlimit:10;}
	.st43{enable-background:new    ;}
	.st44{stroke:#000000;stroke-width:0.25;stroke-miterlimit:10;}
</style>
<pattern  y="1080" width="1920" height="1080" patternUnits="userSpaceOnUse" id="SVGID_39_" viewBox="0 -1080 1920 1080" style="overflow:visible;">
	<g>
		<rect y="-1080" class="st0" width="1920" height="1080"/>
		<g>
			<rect y="-1080" class="st0" width="1920" height="1080"/>
		</g>
	</g>
</pattern>
<pattern  y="1080" width="1920" height="1080" patternUnits="userSpaceOnUse" id="SVGID_40_" viewBox="0 -1080 1920 1080" style="overflow:visible;">
	<g>
		<rect y="-1080" class="st0" width="1920" height="1080"/>
		<g>
			<rect y="-1080" class="st0" width="1920" height="1080"/>
		</g>
	</g>
</pattern>
<path class="st1" d="M0,400h220V0H0V400z"/>
<path class="st2" d="M33.6,43.1h77.8c14.2,0,25.6,9.4,25.6,23.6v31.1c0,14.2-9.4,23.6-23.6,23.6h-31l-10.9,12.1l-3.2-12.1H33.6
	C19.4,121.4,10,112,10,97.8v-31C9.9,52.6,19.4,43.1,33.6,43.1L33.6,43.1z"/>
<path class="st3" d="M90.5,108.1L90.5,108.1L90.5,108.1 M90.7,108.1L90.7,108.1L90.7,108.1 M90.7,108.1L90.7,108.1L90.7,108.1
	L90.7,108.1 M90.5,108L90.5,108L90.5,108 M93.3,109.6L93.3,109.6L93.3,109.6 M93.5,109.7L93.5,109.7L93.5,109.7 M93.5,109.7
	L93.5,109.7L93.5,109.7L93.5,109.7 M93.3,109.6L93.3,109.6L93.3,109.6 M87.4,108.9L87.4,108.9L87.4,108.9 M87.5,108.7L87.5,108.7
	L87.5,108.7 M87.5,108.7L87.5,108.7L87.5,108.7L87.5,108.7 M87.4,108.8L87.4,108.8L87.4,108.8"/>
<path class="st4" d="M44.9,356.4l-0.5,13.3c0,0-10.6,0.7-10.6,4.2h18.9l4.5-17.4L44.9,356.4 M95.6,356.5l-0.2,13.3
	c0,0,11.2,1.4,10.4,4.2l-18.9-0.4L83.3,356L95.6,356.5"/>
<path class="st5" d="M40.4,362.9l16.2-135.4l12.2,0.3v-0.3l22,0.6l9,134.9l-21.2,0.6l-5.8-81.1l-12.6,80.7L40.4,362.9"/>
<g>
	<g>
		<defs>
			<polyline id="SVGID_1_" points="219.6,377.6 218.7,385.7 217.9,385.7 217.9,385.7 216.6,385.7 216.1,377.6 217.4,377.6 
				217.7,382.4 218.4,377.6 219.6,377.6 			"/>
		</defs>
		<clipPath id="SVGID_2_">
			<use xlink:href="#SVGID_1_"  style="overflow:visible;"/>
		</clipPath>
		<g transform="matrix(-.0594 0 0 -.0594 222.008 399.2)" class="st6">
			<g>
				<g>
					<defs>
						<rect id="SVGID_3_" x="1719.3" y="743.7" width="2.8" height="2.8"/>
					</defs>
					<clipPath id="SVGID_4_">
						<use xlink:href="#SVGID_3_"  style="overflow:visible;"/>
					</clipPath>
					<g class="st7">
						<path class="st8" d="M2120.8,799.6h-40.6v4.5h40.6V799.6 M2075.7,799.6h-3l0.3,4.5h2.7V799.6 M2120.8,1027.3h-32.9l0.3,4.5
							h32.6L2120.8,1027.3 M2120.8,913.5h-40.4l0.3,4.5h40.1L2120.8,913.5 M2120.8,685.7h-40.6v4.5h40.6V685.7 M2075.7,685.7h-10.5
							l0.3,4.5h10.2V685.7 M2080.2,609.5l-4.5,0.1v234.5l4.5,67V609.5 M2120.8,1144.2h-25.1l0.1,1h25V1144.2"/>
					</g>
				</g>
			</g>
		</g>
	</g>
</g>
<g>
	<g>
		<defs>
			<polyline id="SVGID_5_" points="219.6,377.6 218.7,385.7 217.9,385.7 217.9,385.7 216.6,385.7 216.1,377.6 217.4,377.6 
				217.7,382.4 218.4,377.6 219.6,377.6 			"/>
		</defs>
		<clipPath id="SVGID_6_">
			<use xlink:href="#SVGID_5_"  style="overflow:visible;"/>
		</clipPath>
		<g transform="matrix(-.0594 0 0 -.0594 222.008 399.2)" class="st9">
			<g>
				<g>
					<defs>
						<rect id="SVGID_7_" x="2519.3" y="743.7" width="2.8" height="2.8"/>
					</defs>
					<clipPath id="SVGID_8_">
						<use xlink:href="#SVGID_7_"  style="overflow:visible;"/>
					</clipPath>
					<g class="st10">
						<path class="st8" d="M2920.8,799.6h-40.6v4.5h40.6V799.6 M2875.7,799.6h-109.4v4.5h109.4V799.6 M2761.8,799.6h-65.1l-0.7,4.5
							h65.8V799.6 M2431.3,799.6h-6.5v4.5h6.8L2431.3,799.6 M2420.3,799.6h-109.4v4.5h109.4V799.6 M2306.4,799.6h-93.3v4.5H2197
							h109.4V799.6 M2920.8,1027.3h-40.6v4.5h40.6V1027.3 M2875.7,1027.3h-109.4v4.5h109.4V1027.3 M2761.8,1027.3h-100.6l-0.7,4.5
							h101.3V1027.3 M2447.6,1027.3h-22.8v4.5h23.1L2447.6,1027.3 M2420.3,1027.3h-109.4v4.5h109.4V1027.3 M2306.4,1027.3h-93.3v4.5
							H2197h109.4V1027.3 M2920.8,913.5h-40.6v4.5h40.6V913.5 M2875.7,913.5h-109.4v4.5h109.4V913.5 M2761.8,913.5H2679l-0.7,4.5
							h83.6v-4.5 M2439.4,913.5h-14.7v4.5h15L2439.4,913.5 M2420.3,913.5h-109.4v4.5h109.4V913.5 M2306.4,913.5h-93.3v4.5H2197
							h109.4V913.5 M2920.8,685.7h-40.6v4.5h40.6V685.7 M2875.7,685.7h-109.4v4.5h109.4V685.7 M2761.8,685.7h-47.4l-0.7,4.5h48.1
							L2761.8,685.7 M2420.3,685.7h-109.4v4.5h109.4V685.7 M2306.4,685.7h-93.3v4.5H2197h109.4V685.7 M2420.3,646.2v498v-133h4.5
							V708.5L2420.3,646.2"/>
						<path class="st8" d="M2310.9,603.4h-1.1l-3.3,0.1v540.7v-133h4.5L2310.9,603.4 M2197,606.4l-4.5,0.1v79.2h4.5V606.4
							 M2197,690.2h-4.5v109.4h4.5V690.2 M2197,804.1h-4.5v109.4h4.5V804.1 M2197,917.9h-4.5v109.4v-16.1h4.5V917.9 M2875.7,608.9
							v535.3v-133h4.5V608.9H2875.7 M2761.8,607.7v536.5v-133h4.5V607.8L2761.8,607.7"/>
						<path class="st8" d="M2213.2,799.6h-92.4v4.5h92.4V799.6 M2213.2,1027.3H2197v4.5h16.1L2213.2,1027.3 M2192.6,1027.3h-71.8
							v4.5h71.8V1027.3 M2213.2,913.5h-92.4v4.5h92.4V913.5 M2213.2,685.7h-92.4v4.5h92.4V685.7 M2920.8,1144.2h-40.6v1h40.6V1144.2
							 M2875.7,1144.2h-109.4v1h109.4V1144.2 M2761.8,1144.2h-109.4v1h109.4V1144.2 M2648,1144.2h-5l-0.2,1h5.1L2648,1144.2
							 M2455.9,1144.2h-31.2v1h31.3L2455.9,1144.2 M2420.3,1144.2h-109.4v1h109.4V1144.2 M2306.4,1144.2h-93.3v1h93.3V1144.2
							 M2652.4,1083.6l-4.5,28.6v32.9h4.5V1083.6"/>
						<path class="st8" d="M2424.7,1011.2h-4.5v134h4.5V1011.2 M2310.9,1011.2h-4.5v134h4.5V1011.2 M2197,1011.2h-4.5v133h4.5
							V1011.2 M2880.2,1011.2h-4.5v134h4.5V1011.2 M2766.3,1011.2h-4.5v134h4.5V1011.2 M2213.2,1144.2h-92.4v1h92.4V1144.2"/>
					</g>
				</g>
			</g>
		</g>
	</g>
</g>
<g>
	<g>
		<defs>
			<polyline id="SVGID_9_" points="219.6,377.6 218.7,385.7 217.9,385.7 217.9,385.7 216.6,385.7 216.1,377.6 217.4,377.6 
				217.7,382.4 218.4,377.6 219.6,377.6 			"/>
		</defs>
		<clipPath id="SVGID_10_">
			<use xlink:href="#SVGID_9_"  style="overflow:visible;"/>
		</clipPath>
		<g transform="matrix(-.0594 0 0 -.0594 222.008 399.2)" class="st11">
			<g>
				<g>
					<defs>
						<rect id="SVGID_11_" x="3319.3" y="743.7" width="2.8" height="2.8"/>
					</defs>
					<clipPath id="SVGID_12_">
						<use xlink:href="#SVGID_11_"  style="overflow:visible;"/>
					</clipPath>
					<g class="st12">
						<path class="st8" d="M3035.9,799.6h-22.8v4.5H2997h38.4L3035.9,799.6 M3022.3,913.5h-9.2v4.5H2997h24.8L3022.3,913.5
							 M3049.6,685.7h-36.4v4.5H2997h52L3049.6,685.7"/>
						<path class="st8" d="M2992.6,610.1v75.7h4.5v-75.6L2992.6,610.1 M2997,690.2h-4.5v109.4h4.5V690.2 M2997,804.1h-4.5v109.4h4.5
							V804.1 M2997,917.9h-4.5v109.4v-16.1h4.5V917.9"/>
						<path class="st8" d="M3013.2,799.6h-92.4v4.5h92.4V799.6 M3008.7,1027.3H2997v4.5h11.1L3008.7,1027.3 M2992.6,1027.3h-71.8
							v4.5h71.8V1027.3 M3013.2,913.5h-92.4v4.5h92.4V913.5 M3013.2,685.7h-92.4v4.5h92.4V685.7"/>
						<path class="st8" d="M2997,1011.2h-4.5v133h2.2l2.3-19.2V1011.2 M2994.7,1144.2h-74v1h73.9L2994.7,1144.2"/>
					</g>
				</g>
			</g>
		</g>
	</g>
</g>
<g>
	<g>
		<defs>
			<polyline id="SVGID_13_" points="219.6,377.6 218.7,385.7 217.9,385.7 217.9,385.7 216.6,385.7 216.1,377.6 217.4,377.6 
				217.7,382.4 218.4,377.6 219.6,377.6 			"/>
		</defs>
		<clipPath id="SVGID_14_">
			<use xlink:href="#SVGID_13_"  style="overflow:visible;"/>
		</clipPath>
		<g transform="matrix(-.0594 0 0 -.0594 222.008 399.2)" class="st13">
			<g>
				<g>
					<defs>
						<rect id="SVGID_15_" x="1719.3" y="1543.7" width="2.8" height="2.8"/>
					</defs>
					<clipPath id="SVGID_16_">
						<use xlink:href="#SVGID_15_"  style="overflow:visible;"/>
					</clipPath>
					<g class="st14">
						<path class="st8" d="M2120.8,1371.9h-9.9l0.3,4.5h9.6L2120.8,1371.9 M2120.8,1258h-17.5l0.3,4.5h17.2V1258 M2120.8,1145.2h-25
							l0.2,3.4h24.8V1145.2 M2120.8,1485.7h-2.4l0.3,4.5h2.1L2120.8,1485.7"/>
					</g>
				</g>
			</g>
		</g>
	</g>
</g>
<g>
	<g>
		<defs>
			<polyline id="SVGID_17_" points="219.6,377.6 218.7,385.7 217.9,385.7 217.9,385.7 216.6,385.7 216.1,377.6 217.4,377.6 
				217.7,382.4 218.4,377.6 219.6,377.6 			"/>
		</defs>
		<clipPath id="SVGID_18_">
			<use xlink:href="#SVGID_17_"  style="overflow:visible;"/>
		</clipPath>
		<g transform="matrix(-.0594 0 0 -.0594 222.008 399.2)" class="st15">
			<g>
				<g>
					<defs>
						<rect id="SVGID_19_" x="2519.3" y="1543.7" width="2.8" height="2.8"/>
					</defs>
					<clipPath id="SVGID_20_">
						<use xlink:href="#SVGID_19_"  style="overflow:visible;"/>
					</clipPath>
					<g class="st16">
						<path class="st8" d="M2920.8,1599.6h-40.6v4.5h40.6V1599.6 M2875.7,1599.6h-109.4v4.5h109.4V1599.6 M2761.8,1599.6h-109.4v4.5
							h109.4V1599.6 M2648,1599.6h-76l-0.7,4.5h76.7V1599.6 M2488.5,1599.6h-63.8v4.5h64.1L2488.5,1599.6 M2420.3,1599.6h-109.4v4.5
							h109.4V1599.6 M2306.4,1599.6h-93.3v4.5H2197h109.4V1599.6 M2920.8,1371.9h-40.6v4.5h40.6V1371.9 M2875.7,1371.9h-109.4v4.5
							h109.4V1371.9 M2761.8,1371.9h-109.4v4.5h109.4V1371.9 M2648,1371.9h-40.5l-0.7,4.5h41.2V1371.9 M2472.2,1371.9h-47.5v4.5
							h47.8L2472.2,1371.9 M2420.3,1371.9h-109.4v4.5h109.4V1371.9 M2306.4,1371.9h-93.3v4.5H2197h109.4V1371.9 M2920.8,1258h-40.6
							v4.5h40.6V1258 M2875.7,1258h-109.4v4.5h109.4V1258 M2761.8,1258h-109.4v4.5h109.4V1258 M2648,1258h-22.7l-0.7,4.5h23.4V1258
							 M2464.1,1258h-39.4v4.5h39.7L2464.1,1258 M2420.3,1258h-109.4v4.5h109.4V1258 M2306.4,1258h-93.3v4.5H2197h109.4V1258
							 M2920.8,1145.2h-40.6v3.4h40.6V1145.2 M2875.7,1145.2h-109.4v3.4h109.4V1145.2 M2761.8,1145.2h-109.4v3.4h109.4V1145.2
							 M2648,1145.2h-5.1l-0.5,3.4h5.7L2648,1145.2 M2456,1145.2h-31.3v3.4h31.5L2456,1145.2 M2420.3,1145.2h-109.4v3.4h109.4
							V1145.2 M2306.4,1145.2h-93.3v3.4H2197h109.4V1145.2 M2913,1827.3h-32.9v4.5h32.3L2913,1827.3 M2875.7,1827.3h-109.4v4.5
							h109.4V1827.3 M2761.8,1827.3h-109.4v4.5h109.4V1827.3 M2648,1827.3h-109.4v4.5H2648V1827.3 M2504.9,1827.3h-80.1v4.5h80.4
							L2504.9,1827.3 M2420.3,1827.3h-109.4v4.5h109.4V1827.3 M2306.4,1827.3h-93.3v4.5H2197h109.4V1827.3 M2920.8,1713.4h-40.6v4.5
							h40.6V1713.4 M2875.7,1713.4h-109.4v4.5h109.4V1713.4 M2761.8,1713.4h-109.4v4.5h109.4V1713.4 M2648,1713.4h-93.7l-0.7,4.5
							h94.4V1713.4 M2496.7,1713.4h-71.9v4.5h72.3L2496.7,1713.4 M2420.3,1713.4h-109.4v4.5h109.4V1713.4 M2306.4,1713.4h-93.3v4.5
							H2197h109.4V1713.4 M2920.8,1485.7h-40.6v4.5h40.6V1485.7 M2875.7,1485.7h-109.4v4.5h109.4V1485.7 M2761.8,1485.7h-109.4v4.5
							h109.4V1485.7 M2648,1485.7h-58.2l-0.7,4.5h58.9V1485.7 M2480.4,1485.7h-55.6v4.5h56L2480.4,1485.7 M2420.3,1485.7h-109.4v4.5
							h109.4V1485.7 M2306.4,1485.7h-93.3v4.5H2197h109.4V1485.7"/>
						<path class="st8" d="M2652.4,1145.2h-4.5v799v-133h4.5V1145.2 M2424.7,1145.2h-4.5v799v-133h4.5V1145.2 M2310.9,1145.2h-4.5
							v799v-133h4.5V1145.2 M2197,1148.6h-4.5V1258h4.5V1148.6 M2197,1262.5h-4.5v109.4h4.5V1262.5 M2197,1376.3h-4.5v109.4h4.5
							V1376.3 M2197,1490.2h-4.5v109.4h4.5V1490.2 M2197,1604.1h-4.5v109.4h4.5V1604.1 M2197,1717.9h-4.5v109.4v-16.1h4.5V1717.9
							 M2880.2,1145.2h-4.5v799v-133h4.5V1145.2 M2766.3,1145.2h-4.5v799v-133h4.5V1145.2 M2213.2,1599.6H2126l0.3,4.5h86.9V1599.6"
							/>
						<path class="st8" d="M2213.2,1371.9h-92.4v4.5h92.4V1371.9 M2213.2,1258h-92.4v4.5h92.4V1258 M2213.2,1145.2h-92.4v3.4h92.4
							V1145.2 M2213.2,1827.3H2197v4.5h16.1L2213.2,1827.3 M2192.6,1827.3h-51.4l0.3,4.5h51.1L2192.6,1827.3 M2213.2,1713.4h-79.6
							l0.3,4.5h79.3V1713.4 M2213.2,1485.7h-92.4v4.5h92.4V1485.7 M2899.1,1944.2h-18.9v1h18.8L2899.1,1944.2 M2875.7,1944.2h-109.4
							v1h109.4V1944.2 M2761.8,1944.2h-109.4v1h109.4V1944.2 M2648,1944.2h-109.4v1H2648V1944.2 M2534.1,1944.2h-15.9l-0.1,1h16
							V1944.2 M2513.2,1944.2h-88.5v1h88.6L2513.2,1944.2 M2420.3,1944.2h-109.4v1h109.4V1944.2 M2306.4,1944.2h-93.3v1h93.3V1944.2
							"/>
						<path class="st8" d="M2652.4,1811.2h-4.5v134h4.5V1811.2 M2424.7,1811.2h-4.5v134h4.5V1811.2 M2310.9,1811.2h-4.5v134h4.5
							V1811.2 M2197,1811.2h-4.5v133h4.5V1811.2 M2880.2,1811.2h-4.5v134h4.5V1811.2 M2766.3,1811.2h-4.5v134h4.5V1811.2
							 M2538.6,1813.9l-4.5,28.6v102.7h4.5V1813.9 M2213.2,1944.2H2149l0.1,1h64.2v-1"/>
					</g>
				</g>
			</g>
		</g>
	</g>
</g>
<g>
	<g>
		<defs>
			<polyline id="SVGID_21_" points="219.6,377.6 218.7,385.7 217.9,385.7 217.9,385.7 216.6,385.7 216.1,377.6 217.4,377.6 
				217.7,382.4 218.4,377.6 219.6,377.6 			"/>
		</defs>
		<clipPath id="SVGID_22_">
			<use xlink:href="#SVGID_21_"  style="overflow:visible;"/>
		</clipPath>
		<g transform="matrix(-.0594 0 0 -.0594 222.008 399.2)" class="st17">
			<g>
				<g>
					<defs>
						<rect id="SVGID_23_" x="3319.3" y="1543.7" width="2.8" height="2.8"/>
					</defs>
					<clipPath id="SVGID_24_">
						<use xlink:href="#SVGID_23_"  style="overflow:visible;"/>
					</clipPath>
					<g class="st18">
						<path class="st8" d="M2994.2,1148.6h-1.6v13.6L2994.2,1148.6 M2940.3,1599.6h-19.5v4.5h19L2940.3,1599.6 M2967.5,1371.9h-46.7
							v4.5h46.2L2967.5,1371.9 M2981.1,1258h-60.4v4.5h59.8L2981.1,1258 M2994.6,1145.2h-73.9v3.4h73.4L2994.6,1145.2
							 M2926.6,1713.4h-5.9v4.5h5.4L2926.6,1713.4 M2953.9,1485.7h-33.1v4.5h32.6L2953.9,1485.7"/>
					</g>
				</g>
			</g>
		</g>
	</g>
</g>
<g>
	<g>
		<defs>
			<polyline id="SVGID_25_" points="219.6,377.6 218.7,385.7 217.9,385.7 217.9,385.7 216.6,385.7 216.1,377.6 217.4,377.6 
				217.7,382.4 218.4,377.6 219.6,377.6 			"/>
		</defs>
		<clipPath id="SVGID_26_">
			<use xlink:href="#SVGID_25_"  style="overflow:visible;"/>
		</clipPath>
		<g transform="matrix(-.0594 0 0 -.0594 222.008 399.2)" class="st19">
			<g>
				<g>
					<defs>
						<rect id="SVGID_27_" x="2519.3" y="2343.7" width="2.8" height="2.8"/>
					</defs>
					<clipPath id="SVGID_28_">
						<use xlink:href="#SVGID_27_"  style="overflow:visible;"/>
					</clipPath>
					<g class="st20">
						<path class="st8" d="M2844.6,2399.6h-78.3v4.5h77.8L2844.6,2399.6 M2761.8,2399.6h-109.4v4.5h109.4V2399.6 M2648,2399.6
							h-109.4v4.5H2648V2399.6 M2534.1,2399.6h-109.4v4.5h109.4V2399.6 M2420.3,2399.6h-109.4v4.5h109.4V2399.6 M2306.4,2399.6
							h-93.3v4.5H2197h109.4V2399.6 M2871.8,2171.9h-105.5v4.5h105L2871.8,2171.9 M2761.8,2171.9h-109.4v4.5h109.4V2171.9
							 M2648,2171.9h-109.4v4.5H2648V2171.9 M2534.1,2171.9h-109.4v4.5h109.4V2171.9 M2420.3,2171.9h-109.4v4.5h109.4V2171.9
							 M2306.4,2171.9h-93.3v4.5H2197h109.4V2171.9 M2885.4,2058h-5.3v4.5h4.7L2885.4,2058 M2875.7,2058h-109.4v4.5h109.4V2058
							 M2761.8,2058h-109.4v4.5h109.4V2058 M2648,2058h-109.4v4.5H2648V2058 M2534.1,2058h-109.4v4.5h109.4V2058 M2420.3,2058
							h-109.4v4.5h109.4V2058 M2306.4,2058h-93.3v4.5H2197h109.4V2058 M2898.9,1945.2h-18.8v3.4h18.4L2898.9,1945.2 M2875.7,1945.2
							h-109.4v3.4h109.4V1945.2 M2761.8,1945.2h-109.4v3.4h109.4V1945.2 M2648,1945.2h-109.4v3.4H2648V1945.2 M2534.1,1945.2h-16
							l-0.5,3.4h16.5V1945.2 M2513.3,1945.2h-88.6v3.4h88.8L2513.3,1945.2 M2420.3,1945.2h-109.4v3.4h109.4V1945.2 M2306.4,1945.2
							h-93.3v3.4H2197h109.4V1945.2 M2817.4,2627.3h-51.1v4.5h50.5L2817.4,2627.3 M2761.8,2627.3h-109.4v4.5h109.4V2627.3
							 M2648,2627.3h-109.4v4.5H2648V2627.3 M2534.1,2627.3h-109.4v4.5h109.4V2627.3 M2420.3,2627.3h-109.4v4.5h109.4V2627.3
							 M2306.4,2627.3h-93.3v4.5H2197h109.4V2627.3 M2831,2513.4h-64.7v4.5h64.1L2831,2513.4 M2761.8,2513.4h-109.4v4.5h109.4
							V2513.4 M2648,2513.4h-109.4v4.5H2648V2513.4 M2534.1,2513.4h-109.4v4.5h109.4V2513.4 M2420.3,2513.4h-109.4v4.5h109.4V2513.4
							 M2306.4,2513.4h-93.3v4.5H2197h109.4V2513.4 M2858.2,2285.7h-91.9v4.5h91.4L2858.2,2285.7 M2761.8,2285.7h-109.4v4.5h109.4
							V2285.7 M2648,2285.7h-109.4v4.5H2648V2285.7 M2534.1,2285.7h-109.4v4.5h109.4V2285.7 M2420.3,2285.7h-109.4v4.5h109.4V2285.7
							 M2306.4,2285.7h-93.3v4.5H2197h109.4V2285.7"/>
						<path class="st8" d="M2652.4,1945.2h-4.5v799v-133h4.5V1945.2 M2424.7,1945.2h-4.5v799v-133h4.5V1945.2 M2310.9,1945.2h-4.5
							v799v-133h4.5V1945.2 M2197,1948.6h-4.5V2058h4.5V1948.6 M2197,2062.5h-4.5v109.4h4.5V2062.5 M2197,2176.4h-4.5v109.4h4.5
							V2176.4 M2197,2290.2h-4.5v109.4h4.5V2290.2 M2197,2404.1h-4.5v109.4h4.5V2404.1 M2197,2517.9h-4.5v82l0.8,11.2h3.7V2517.9
							 M2880.2,1945.2h-4.5v194.2l4.5-37.3V1945.2 M2766.3,1945.2h-4.5v799v-133h4.5V1945.2 M2538.6,1945.2h-4.5v799v-133h4.5
							V1945.2 M2213.2,2399.6h-33.9l0.3,4.5h33.6L2213.2,2399.6"/>
						<path class="st8" d="M2213.2,2171.9h-49.1l0.3,4.5h48.8V2171.9 M2213.2,2058h-56.7l0.3,4.5h56.4V2058 M2213.2,1945.2H2149
							l0.2,3.4h63.9v-3.4 M2197,2627.3h16.1v4.5H2197V2627.3z M2213.2,2513.4h-26.4l0.3,4.5h26.1L2213.2,2513.4 M2213.2,2285.7
							h-41.5l0.3,4.5h41.2V2285.7 M2803.4,2744.2h-37.1v1h36.9L2803.4,2744.2 M2761.8,2744.2h-109.4v1h109.4V2744.2 M2648,2744.2
							h-109.4v1H2648V2744.2 M2534.1,2744.2h-109.4v1h109.4V2744.2 M2420.3,2744.2h-109.4v1h109.4V2744.2 M2306.4,2744.2h-93.3v1
							h93.3V2744.2"/>
						<path class="st8" d="M2652.4,2611.2h-4.5v134h4.5V2611.2 M2424.7,2611.2h-4.5v134h4.5V2611.2 M2310.9,2611.2h-4.5v134h4.5
							V2611.2 M2197,2611.2h-3.7l3.7,55.8V2611.2 M2766.3,2611.2h-4.5v134h4.5V2611.2 M2538.6,2611.2h-4.5v134h4.5V2611.2
							 M2213.2,2744.2h-11l0.1,1h10.9V2744.2"/>
					</g>
				</g>
			</g>
		</g>
	</g>
</g>
<g>
	<g>
		<defs>
			<polyline id="SVGID_29_" points="219.6,377.6 218.7,385.7 217.9,385.7 217.9,385.7 216.6,385.7 216.1,377.6 217.4,377.6 
				217.7,382.4 218.4,377.6 219.6,377.6 			"/>
		</defs>
		<clipPath id="SVGID_30_">
			<use xlink:href="#SVGID_29_"  style="overflow:visible;"/>
		</clipPath>
		<g transform="matrix(-.0594 0 0 -.0594 222.008 399.2)" class="st21">
			<g>
				<g>
					<defs>
						<rect id="SVGID_31_" x="2519.3" y="3143.7" width="2.8" height="2.8"/>
					</defs>
					<clipPath id="SVGID_32_">
						<use xlink:href="#SVGID_31_"  style="overflow:visible;"/>
					</clipPath>
					<g class="st22">
						<path class="st8" d="M2789.8,2858h-23.4v4.5h22.9L2789.8,2858 M2761.8,2858h-109.4v4.5h109.4V2858 M2648,2858h-109.4v4.5H2648
							V2858 M2534.1,2858h-109.4v4.5h109.4V2858 M2420.3,2858h-109.4v4.5h109.4V2858 M2306.4,2858h-93.3v4.5h-3.1h96.4L2306.4,2858
							 M2803.2,2745.2h-36.9v3.4h36.5L2803.2,2745.2 M2761.8,2745.2h-109.4v3.4h109.4V2745.2 M2648,2745.2h-109.4v3.4H2648V2745.2
							 M2534.1,2745.2h-109.4v3.4h109.4V2745.2 M2420.3,2745.2h-109.4v3.4h109.4V2745.2 M2306.4,2745.2h-93.3v3.4h-10.7h104V2745.2"
							/>
						<path class="st8" d="M2652.4,2745.2h-4.5v143.1l4.5,0.1V2745.2 M2424.7,2745.2h-4.5v142.2l4.5,0.1V2745.2 M2310.9,2745.2h-4.5
							v139.3l4.5,0.1V2745.2 M2766.3,2745.2h-4.5v145.5l4.5,0.1V2745.2 M2538.6,2745.2h-4.5v145.1l4.5,0.1V2745.2 M2213.2,2858h-3.4
							l0.3,4.5h3.1L2213.2,2858 M2213.2,2745.2h-10.9l0.2,3.4h10.7V2745.2"/>
					</g>
				</g>
			</g>
		</g>
	</g>
</g>
<path class="st4" d="M73.3,284c0.1,0,0.6-2.1,1.3-5.7c0.7-3.5,1.6-8.4,2.5-13.8c0.5-3.2,1.1-6.1,1.5-8.7v0.1
	c1.4-2.9,2.6-5.5,3.3-7.2c0.7-1.8,1.1-2.9,1-2.9s-0.6,1-1.4,2.7l-3.6,7.1v0.1v0.1c-0.5,2.6-1,5.6-1.6,8.7
	c-0.9,5.4-1.7,10.3-2.3,13.9C73.5,281.8,73.2,284,73.3,284 M58.2,252.4c0.2,0.1,2.7-3.3,5.3-7.8c2.7-4.5,4.5-8.3,4.3-8.4
	c-0.2-0.1-2.4,3.5-5.1,7.9C60.1,248.6,58,252.2,58.2,252.4 M78.2,357.3c0,0.3,4.7,0.2,10.6,0.2c5.8,0,10.5,0,10.6-0.3
	c0-0.2-4.7-0.6-10.6-0.6C82.9,356.6,78.2,357,78.2,357.3 M41,357.3c0,0.3,4.4,0.5,9.9,0.5s9.9-0.2,9.9-0.4s-4.4-0.5-9.9-0.5
	C45.5,356.8,41.1,357,41,357.3"/>
<path class="st23" d="M117,253.9c0.6,1.2,3.9,4.8,3.1,5.2c-0.5,0.3-3.7-3.2-3.7-3.2s0.6,1.7,2.2,3.5c1.2,1.3,0.7,1.6,0.7,1.6
	c-1,0.5-4.7-3.8-4.7-3.8s0.7,1.2,1.3,2c0.6,0.8,1.1,2.2,0.7,2.3c-1.1,0.3-4.9-5.7-4.9-5.7s-0.4-0.7-0.5,1.6c-0.1,2.2-1.8,2-1.7,0.9
	c0.1-0.8,0.2-2.3-0.3-3.6c-0.2-0.5-1.5-4-1.5-4l0,0c-0.1-0.2-0.2-0.3-0.2-0.5c-0.8-1.6-2.8-5.6-5.2-9.5c2.3-2.6,4.7-5.2,7-7.7
	c3.7,7.4,5.5,14.1,5.5,14.1l0,0c0.2,0.5,0.3,0.9,0.4,1.3c1.5,3.9,4.2,7,4.1,7.7C119.3,256.7,117,253.9,117,253.9"/>
<path class="st24" d="M115.3,244.1c0,0-21.2-69.9-39.8-67.3l-4,20.2l34.9,50.9L115.3,244.1"/>
<path class="st4" d="M107.1,247.5c0.1,0.2,2-0.5,4.3-1.5s4.2-1.8,4.1-2s-2.1,0.2-4.4,1.2C108.7,246.2,106.9,247.3,107.1,247.5"/>
<path class="st23" d="M23.7,172.5c-0.5-1.3-3.4-5.1-2.6-5.5c0.5-0.2,3.4,3.6,3.4,3.6s-0.5-1.8-1.9-3.7c-1.1-1.4-0.6-1.7-0.6-1.7
	c1-0.4,4.3,4.2,4.3,4.2s-0.6-1.3-1.1-2.1c-0.6-0.8-0.9-2.2-0.5-2.3c1.1-0.2,4.3,6.2,4.3,6.2s0.3,0.7,0.6-1.5s2-1.8,1.8-0.8
	c-0.2,0.8-0.4,2.3,0,3.6c0.1,0.5,1.1,4.1,1.1,4.1l0,0l0.2,0.5c0.7,1.7,2.3,5.8,4.3,10c-2.5,2.4-5.1,4.7-7.7,7
	c-3-7.7-4.2-14.5-4.2-14.5l0,0c-0.1-0.5-0.2-1-0.3-1.4c-1.1-4.1-3.6-7.3-3.4-8C21.6,169.5,23.7,172.5,23.7,172.5"/>
<path class="st24" d="M65.2,176.7c0,0-7.6,1.2-11.8,9.2c-3.8,7.1-9.2,15.4-9.2,15.4l-9.9-23.9l-10.1,4.2l6.6,28
	c0,0,3.5,13.1,12.5,14.5s24.5-21.2,24.5-21.2L65.2,176.7"/>
<path class="st4" d="M47.2,211.8c0.2-0.1-0.2-2.6-1-5.6s-1.6-5.4-1.9-5.3c-0.2,0.1,0.2,2.6,1,5.6S46.9,211.9,47.2,211.8 M48.8,207.6
	c0.2-0.1-0.6-1.6-1.5-3.5c-1-1.8-1.9-3.3-2.1-3.1c-0.2,0.1,0.3,1.7,1.3,3.6C47.5,206.5,48.6,207.8,48.8,207.6 M24.7,181.9
	c0.1,0.2,2.4-0.6,5-1.8c2.7-1.2,4.7-2.4,4.6-2.6c-0.1-0.2-2.4,0.6-5,1.8C26.7,180.4,24.6,181.6,24.7,181.9"/>
<path class="st25" d="M65.5,164c0,0-2.4-1.8-1.3-8.7l4.8,0.5L65.5,164"/>
<path class="st23" d="M82.9,156.7c-0.6-4.5-4.1-8.1-8.6-8.5c-1.4-0.1-2.8,0.1-4.2,0.7c-3.3,1.6-4.5,6.6-4.9,10.4l0.3,4.8l-0.4,19.6
	c2.9,12.2,12.5,11.7,12.6-3.2l-0.1-9.8C83.3,169,83.5,161.7,82.9,156.7"/>
<path class="st26" d="M77.6,175l-0.1-4.4c0,0-0.5,0.2-1.4,0.2c-1.2,0-2.9-0.3-5.1-1.7C71,169.1,73.2,173.4,77.6,175"/>
<path class="st4" d="M77.5,170.6c-0.6,0.1-1.1,0.1-1.7,0s-1.1-0.2-1.6-0.3s-1.1-0.4-1.6-0.6l-0.8-0.3c-0.3-0.1-0.5-0.2-0.8-0.3
	c0.2,0.2,0.5,0.3,0.7,0.5s0.5,0.3,0.7,0.4c0.5,0.3,1.1,0.5,1.6,0.7c0.6,0.2,1.1,0.3,1.7,0.3C76.4,171,77,170.9,77.5,170.6
	 M75.7,162.1c-0.1,0.3-0.1,0.6,0,0.9c0.1,0.3,0.4,0.6,0.8,0.6c0.3,0,0.6-0.1,0.9-0.2c0.1-0.1,0.3-0.1,0.4-0.2
	c0.1-0.1,0.2-0.2,0.3-0.4c0.1-0.3,0.2-0.6,0.1-1c-0.1-0.2-0.2-0.3-0.4-0.4c-0.2-0.1-0.3-0.1-0.5,0C76.7,161.4,76.2,161.7,75.7,162.1
	c0.5-0.2,1-0.5,1.6-0.5c0.3,0,0.5,0.1,0.5,0.3c0.1,0.2,0,0.4-0.1,0.6c-0.1,0.2-0.3,0.3-0.5,0.4c-0.2,0.1-0.5,0.2-0.7,0.2
	C76,163.2,75.8,162.6,75.7,162.1 M77.2,155.9c0.6,0.9,1.4,1.7,2.2,2.4v-0.2c-0.4,0.5-0.8,1.1-1.2,1.6c0.5-0.4,1-0.9,1.4-1.4l0.1-0.1
	l-0.1-0.1C78.9,157.2,78.2,156.5,77.2,155.9 M74.2,156c0.1,0.5,0.2,1,0.2,1.6c0,0.5-0.1,1-0.5,1.2s-0.8-0.1-1.2-0.4
	c-0.4-0.3-0.7-0.7-1-1.2l0,0c0-0.1-0.1-0.1-0.2,0c-0.1,0-0.1,0.1,0,0.2c0.3,0.5,0.6,0.9,1,1.3c0.2,0.2,0.4,0.4,0.7,0.5
	c0.3,0.1,0.6,0.2,0.9,0c0.3-0.1,0.5-0.4,0.6-0.7s0.1-0.6,0.1-0.9c0-0.6-0.1-1.1-0.3-1.6c0-0.1-0.1-0.1-0.1-0.1
	C74.2,155.9,74.2,156,74.2,156L74.2,156 M81.2,154.4c0.1,0.5,0.2,1,0.2,1.5c0,0.2,0,0.5,0,0.7s-0.1,0.4-0.3,0.4
	c-0.1,0.1-0.3,0-0.5-0.1s-0.4-0.3-0.5-0.5c-0.3-0.4-0.6-0.8-0.9-1.2l0,0c0-0.1-0.1-0.1-0.2,0c-0.1,0-0.1,0.1,0,0.2
	c0.2,0.5,0.5,0.9,0.8,1.3c0.2,0.2,0.3,0.4,0.6,0.6c0.2,0.1,0.5,0.3,0.9,0.2c0.3-0.1,0.5-0.5,0.5-0.8s0-0.5,0-0.8
	c-0.1-0.5-0.2-1-0.3-1.5c0-0.1-0.1-0.1-0.1-0.1C81.2,154.3,81.2,154.4,81.2,154.4L81.2,154.4"/>
<g>
	<g>
		<defs>
			<path id="SVGID_33_" d="M217.1,389.9c0,0.3,0.2,0.5,0.5,0.5c0.1,0,0.2,0,0.2,0c0.2-0.1,0.3-0.4,0.3-0.6l0-0.3l0-1.2
				c-0.2-0.7-0.7-0.7-0.7,0.2l0,0.6C217.1,389.2,217,389.6,217.1,389.9"/>
		</defs>
		<clipPath id="SVGID_34_">
			<use xlink:href="#SVGID_33_"  style="overflow:visible;"/>
		</clipPath>
		<g transform="matrix(-.0594 0 0 -.0594 222.008 399.2)" class="st27">
			<path class="st28" d="M2615.2,3987.1c0-29-24.3-52.6-54.4-52.6c-30,0-54.4,23.5-54.4,52.6c0,29,24.4,52.5,54.4,52.5
				C2590.9,4039.6,2615.2,4016.1,2615.2,3987.1 M2366.3,4027.6c0-29-24.4-52.5-54.4-52.5s-54.4,23.5-54.4,52.5s24.4,52.6,54.4,52.6
				C2342,4080.2,2366.3,4056.6,2366.3,4027.6"/>
		</g>
	</g>
</g>
<path class="st25" d="M67.8,151.1c0,0,4.6,6.1,13.7,0.8c0,0-2-3.2-5.8-4.4c-4.6-1.4-9.4,1.4-11,6c-0.3,0.9-0.6,1.8-0.7,2.9
	c0,0,0.3,6.8,1.4,7.7c1.4,1-1.3-4.9,1.3-5.4C72.1,157.8,68.9,153.7,67.8,151.1"/>
<path class="st24" d="M64.8,177.5c1.7,1.8,8.5,2.9,13.1-0.3l4,3.6L93.8,201l-1.9,30.3l-36.5,0.5l-1.1-39.5L64.8,177.5"/>
<path class="st23" d="M67,159.8c0,1.6-1.1,3-2.5,3s-2.5-1.3-2.5-3c0-1.6,1.1-3,2.5-3S67,158.1,67,159.8"/>
<path class="st4" d="M63.6,159.8c0.4,0.1,0.7,0.2,0.9,0.4c0.1,0.1,0.2,0.2,0.3,0.3c0.1,0.1,0.2,0.3,0.4,0.4c0.1-0.2,0.1-0.4,0-0.6
	c-0.1-0.2-0.2-0.4-0.4-0.5c-0.2-0.1-0.4-0.2-0.7-0.2C63.9,159.5,63.7,159.6,63.6,159.8 M91.9,231.2c0.1,0,0.4-1.8,0.7-4.6
	c0.3-2.9,0.6-6.8,0.9-11.2c0.2-4.4,0.4-8.4,0.4-11.2c0.1-2.9,0-4.7-0.1-4.7s-0.3,1.8-0.5,4.6c-0.2,2.9-0.5,6.8-0.7,11.2
	s-0.5,8.3-0.6,11.2C91.8,229.4,91.8,231.2,91.9,231.2 M55.4,231.7c0.1,0,0.2-1.9,0.1-4.9c0-3,0-7.2-0.1-11.8s-0.3-8.8-0.5-11.8
	s-0.5-4.9-0.7-4.9c-0.1,0-0.1,1.9,0,4.9l0.3,11.8c0.1,4.6,0.2,8.8,0.4,11.8C55,229.9,55.3,231.7,55.4,231.7 M64.9,177.4
	c-0.1,0.1,0.5,0.6,1.7,1.1c0.6,0.3,1.3,0.5,2.1,0.7c0.8,0.2,1.8,0.3,2.7,0.3c1,0,1.9-0.2,2.7-0.4c0.8-0.2,1.5-0.5,2.1-0.8
	c1.1-0.6,1.7-1.1,1.6-1.2c-0.1-0.1-0.8,0.2-1.9,0.6c-0.6,0.2-1.3,0.4-2,0.6c-0.8,0.1-1.6,0.3-2.5,0.3s-1.8-0.1-2.6-0.2
	c-0.8-0.1-1.5-0.3-2-0.5C65.6,177.6,64.9,177.3,64.9,177.4 M138.9,356.2l0.1,14c0,0-11.3,0.7-10.4,3.8h18.9l2.7-18.3L138.9,356.2
	 M176.5,356.2l2.6,14c0,0-11.2-0.1-10.4,3.6l18.9,0.2l0.2-18.3L176.5,356.2"/>
<path class="st29" d="M134.2,362.4l7.3-129.3h41.6l9.5,128.9l-20.2,0.5L161.1,265l-7.7,97.2L134.2,362.4"/>
<g>
	<g>
		<defs>
			<polyline id="SVGID_35_" points="212.4,383.4 212.4,383.5 212.4,383.4 212.4,383.4 			"/>
		</defs>
		<clipPath id="SVGID_36_">
			<use xlink:href="#SVGID_35_"  style="overflow:visible;"/>
		</clipPath>
		<g transform="matrix(-.0594 0 0 -.0594 222.008 399.2)" class="st30">
			<path class="st31" d="M1024.8,2253.7h0.9v5.2h-0.9V2253.7z"/>
		</g>
	</g>
</g>
<path class="st32" d="M161.3,265.6C161.3,265.6,161.4,265.6,161.3,265.6c0.2-0.1-1.2-4.1-3.3-8.9c-2-4.8-3.9-8.6-4.2-8.6l0,0
	c-0.2,0.1,1.3,4.1,3.3,8.9c1.7,4,3.3,7.3,3.9,8.3v-0.2v0.3C161.2,265.5,161.3,265.6,161.3,265.6 M184.2,260.1L184.2,260.1
	c0.1-0.1-1-1.3-2.6-3.4c-1.7-2-3.9-4.9-6.1-8.2c-2.2-3.4-4-6.5-5.2-8.9c-1.2-2.3-1.9-3.8-2-3.8l0,0c-0.1,0,0.4,1.6,1.5,4
	s2.8,5.7,5,9.1c2.2,3.4,4.6,6.2,6.4,8.2C182.8,259,184,260.1,184.2,260.1 M136.4,356.9c1.7,0,4.6-0.1,7.8-0.2
	c5.2-0.1,9.5-0.1,9.5-0.4c0-0.2-3.2-0.5-7.6-0.5c-0.6,0-1.3,0-1.9,0c-5.3,0.1-9.5,0.7-9.5,0.9C134.8,356.9,135.4,356.9,136.4,356.9
	 M177.5,355.8c1.3,0,2.9,0,4.5-0.1c5.6-0.1,10.1-0.4,10.1-0.7c0-0.2-2.3-0.3-5.6-0.3c-1.4,0-2.9,0-4.5,0.1
	c-5.6,0.1-10.1,0.4-10.1,0.7C171.9,355.7,174.1,355.8,177.5,355.8"/>
<path class="st4" d="M151.2,151.1c5.6-5.7,12.2-4.5,16.4-3.2c6.4,2,11.5,1.2,18.6-0.2s14.7-0.2,20.3,7.8c7.9,11.3,0.6,22.2-5.5,27.4
	c-10.9,9.2-32.1,16.5-41.7-11.1C159.3,171.7,139.9,162.7,151.2,151.1"/>
<path class="st33" d="M147.4,158.6c0.5-4.4,4-7.9,8.4-8.3c1.3-0.1,2.7,0.1,4.1,0.7c2.2,1.1,3.4,3.7,4.1,6.4c0.4,1.8,0.6,3.6,0.6,5.4
	l0.1,21.8c-2.8,11.8-12.1,11.4-12.2-3.1l0.1-9.5C147,170.5,146.8,163.5,147.4,158.6"/>
<path class="st34" d="M152.6,176.3c4.3-1.5,6.3-5.7,6.3-5.7c-2.1,1.4-3.8,1.7-4.9,1.7c-0.9,0-1.4-0.2-1.4-0.2L152.6,176.3"/>
<path class="st4" d="M152.6,172.1c0.5,0.3,1.1,0.4,1.7,0.4c0.6,0,1.2-0.1,1.7-0.2c0.6-0.2,1.1-0.4,1.6-0.7c0.2-0.1,0.5-0.3,0.7-0.5
	s0.4-0.4,0.6-0.6c-0.3,0.1-0.5,0.2-0.8,0.3s-0.5,0.2-0.8,0.3c-0.5,0.2-1,0.4-1.5,0.5s-1,0.3-1.6,0.3
	C153.7,172.1,153.2,172.2,152.6,172.1 M155.9,162.8c-0.4,0.5-0.9,0.9-1.4,1.3c-0.5,0.3-1.1,0.5-1.7,0.5c-0.6,0-1.2-0.2-1.7-0.5
	l-0.8-0.5c-0.3-0.2-0.5-0.4-0.8-0.5c0.2,0.3,0.4,0.5,0.6,0.8c0.2,0.2,0.5,0.4,0.8,0.6c0.6,0.4,1.2,0.6,1.9,0.7c0.7,0,1.4-0.3,2-0.7
	C155.2,164,155.6,163.5,155.9,162.8 M152.9,157.8c-0.5,0.2-0.9,0.6-1.3,0.9c-0.4,0.3-0.8,0.7-1.1,1.1l-0.2,0.2l0.1,0.1
	c0.4,0.5,0.9,0.9,1.4,1.3c-0.3-0.6-0.7-1.1-1.1-1.6v0.3c0.4-0.3,0.8-0.7,1.1-1.1C152.3,158.7,152.6,158.3,152.9,157.8 M155.6,157.9
	c-0.2,0.5-0.3,1-0.3,1.6c0,0.3,0,0.6,0.1,0.9c0.1,0.3,0.3,0.6,0.6,0.8s0.7,0.1,1,0s0.5-0.3,0.7-0.5c0.4-0.4,0.7-0.8,1-1.3
	c0.1-0.1,0-0.2-0.1-0.3c-0.1,0-0.2,0-0.2,0l0,0c-0.3,0.4-0.6,0.8-1,1.1s-0.8,0.5-1.1,0.4s-0.4-0.6-0.4-1.1s0-1,0.1-1.5l0,0
	c0-0.1,0-0.2-0.1-0.2C155.7,157.7,155.6,157.8,155.6,157.9 M148.8,156.3c-0.2,0.5-0.3,0.9-0.4,1.5c0,0.3,0,0.5,0,0.8
	s0.2,0.6,0.5,0.8c0.2,0.1,0.4,0.1,0.6,0c0.2,0,0.3-0.1,0.4-0.2c0.2-0.2,0.4-0.4,0.6-0.6c0.3-0.4,0.6-0.8,0.8-1.3
	c0-0.1,0-0.2-0.1-0.2s-0.2,0-0.2,0.1l0,0c-0.3,0.4-0.6,0.8-0.9,1.1c-0.2,0.2-0.3,0.3-0.5,0.4c-0.2,0.1-0.3,0.2-0.4,0.1
	c-0.1,0-0.2-0.2-0.2-0.4s0-0.4,0-0.7c0-0.5,0.1-0.9,0.2-1.4l0,0c0-0.1,0-0.2-0.1-0.2C148.9,156.2,148.8,156.2,148.8,156.3"/>
<g>
	<g>
		<defs>
			<path id="SVGID_37_" d="M213.3,389.8c0,0.3-0.2,0.5-0.5,0.5c-0.1,0-0.2,0-0.2,0c-0.1-0.1-0.2-0.2-0.2-0.4c0-0.1,0-0.2,0-0.3
				l0-1.3c0.2-0.7,0.7-0.7,0.7,0.2l0,0.6C213.3,389.1,213.3,389.5,213.3,389.8"/>
		</defs>
		<clipPath id="SVGID_38_">
			<use xlink:href="#SVGID_37_"  style="overflow:visible;"/>
		</clipPath>
		<g transform="matrix(-.0594 0 0 -.0594 222.008 399.2)" class="st35">
			<path class="st36" d="M991.5,3958.1c0-28.2,23.6-51,52.8-51c29.2,0,52.8,22.8,52.8,51s-23.6,51-52.8,51
				C1015.2,4009,991.5,3986.2,991.5,3958.1 M1233.1,3997.4c0-28.2,23.6-51,52.8-51c29.2,0,52.8,22.8,52.8,51s-23.6,51-52.8,51
				S1233.1,4025.6,1233.1,3997.4"/>
		</g>
	</g>
</g>
<path class="st4" d="M161.3,152.5c0,0-7,5.3-13.1,2.9c0,0,3.7-7.8,10.7-5.6c4,1.2,5.7,4.3,6.5,6.7c0.6,2-1,4-3.1,3.8
	C160.5,159.9,159.9,157,161.3,152.5 M164.6,176.9c0,0-3-5.4-0.2-13.6l3.2,0.9l-1.6,12.6L164.6,176.9"/>
<path class="st33" d="M162.6,160.9c0,1.6,1.1,3,2.5,3s2.5-1.3,2.5-3c0-1.6-1.1-3-2.5-3S162.6,159.2,162.6,160.9"/>
<path class="st4" d="M166,160.9c-0.1-0.2-0.3-0.3-0.6-0.3c-0.2,0-0.5,0.1-0.7,0.2c-0.2,0.1-0.3,0.3-0.4,0.5c-0.1,0.2-0.1,0.4,0,0.6
	c0.2-0.1,0.3-0.3,0.4-0.4c0.1-0.1,0.2-0.2,0.3-0.3C165.4,161.1,165.6,161,166,160.9"/>
<path class="st33" d="M130.7,170c-0.2-0.7-0.4-1.4-0.7-2.1c-0.1-0.1-0.1-0.3-0.1-0.4c0-0.1,0.1-0.2,0.1-0.3c0.6-1.3,1.3-2.5,2.1-3.7
	c0-0.1,0.1-0.1,0.2-0.2c0.1,0,0.2,0.1,0.2,0.2c0.2,0.7,0.3,1.4,0.1,2.1c-0.2,0.5-0.4,1.1-0.2,1.6"/>
<path class="st33" d="M133.2,175.9c1-0.8,0.9-2.3,0.9-3.6c0-1.9-0.2-4.2,0.7-5.9c0.1-0.2,0.3-0.2,0.5-0.1c0.5,0.3,0.7,1.1,0.6,1.7
	c-0.1,1.2-0.2,1.4-0.1,2.2c0.1,1.5,1,2.9,1.4,4.2c1.1,3.2,0.2,7.1-2.4,9.4l-3.8-1.6c0.7-0.7,0.6-1.9,0.4-2.9
	c-0.3-2.4-0.6-4.8-1.4-7.1c-0.4-1.3-1-2.5-1.1-3.8c-0.1-1.8,0.8-3.5,2.2-4.6l0.1-0.1c0.2,0,0.2,0.2,0.2,0.4l-0.7,3.4l1.8,1l1.1,3
	l1.9,1.8"/>
<path class="st33" d="M132.6,172.6l-0.8-3.7c-0.1-0.4-0.2-0.7-0.1-1.1c0.1-0.3,0.2-0.6,0.4-0.9c0.6-1.1,1.3-3.5,1.7-3.2
	c0.7,0.6,0.5,1.7,0.1,2.6c-0.4,0.9-0.9,1.8-0.6,2.7c0.1,0.4,0.3,0.7,0.5,1c0.6,1.2,0.9,2.7,0.5,4"/>
<path class="st37" d="M127.4,180.7l11.8-0.5l-1.9,12.6c0,0-0.5,1,3.9-5.6c3.2-4.8,7.6-6.7,10.2-7.4l1-0.5c0.1,0.1,1.5,0.4,1.5,0.4
	c3.6,0.4,10.1-2.3,10.6-2.8h4.6c3,0,5.9,1.1,8.1,3.1c9.5,8.6,34.1,32.4,22.1,39.6c-4.9,2.9-11.2,3.7-17.4,3.5l1.9,10.8l-43.3,0.9
	l1.9-15.7c-4.1,3.8-8.5,6.6-11.9,5.3C115.9,218.6,127.4,180.7,127.4,180.7"/>
<pattern  id="SVGID_41_" xlink:href="#SVGID_39_" patternTransform="matrix(-0.5939 0 0 -0.5939 -22830.3809 -14224.7168)">
</pattern>
<path class="st38" d="M127.4,180.7l11.8-0.5l-1.9,12.5c0,0-0.5,1,3.9-5.6c3.2-4.8,7.6-6.7,10.2-7.4l1-0.5c0.1,0.1,1.5,0.4,1.5,0.4
	c3.6,0.4,10.1-2.3,10.6-2.8h4.6c3,0,5.9,1.1,8.1,3.1c9.5,8.6,34.1,32.5,22.1,39.6c-4.9,2.9-11.2,3.7-17.4,3.5l1.9,10.8l-43.3,0.9
	l1.9-15.7c-4.1,3.8-8.5,6.6-11.9,5.3C115.9,218.7,127.4,180.7,127.4,180.7"/>
<path class="st4" d="M126.8,181.1c0,0.3,2.8,0.3,6.2,0.1s6.1-0.6,6.1-0.8s-2.8-0.3-6.1-0.1C129.5,180.5,126.8,180.9,126.8,181.1"/>
<path class="st33" d="M143.8,206c-1.2-0.5-6.1-1-5.8-1.8c0.2-0.5,4.9-0.1,4.9-0.1s-1.6-0.9-4-1.1c-1.7-0.2-1.6-0.7-1.6-0.7
	c0.4-1,6-0.3,6-0.3s-1.3-0.5-2.3-0.6c-1-0.2-2.2-0.9-2-1.2c0.6-0.9,7.5,1,7.5,1s0.7,0.2-0.7-1.5c-0.7-0.8-0.8-1.8-0.8-2.6
	c0-0.6,0.7-0.8,1.1-0.3c0.9,1.3,2.3,3.2,3,3.6c0.5,0.3,3.8,2,3.8,2l0,0l0.5,0.2c1.7,0.7,5.8,2.3,10.2,3.6c0,3.5,0,6.9-0.1,10.4
	c-7.7-3-13.5-6.8-13.5-6.8l0,0c-0.5-0.3-0.9-0.5-1.2-0.7c-3.7-1.9-7.8-2.4-8.2-3C140.2,205.5,143.8,206,143.8,206"/>
<path class="st37" d="M182,223.1c0,0-12.1-0.8-29.4-10.3l1.6-12.2L182,209L182,223.1"/>
<pattern  id="SVGID_42_" xlink:href="#SVGID_40_" patternTransform="matrix(-0.5939 0 0 -0.5939 -22830.3809 -14224.7168)">
</pattern>
<path class="st39" d="M182,223c0,0-12.1-0.8-29.4-10.3l1.6-12.2L182,209V223"/>
<path class="st4" d="M152.5,214.3c0.2,0,0.8-2.9,1.3-6.6c0.5-3.7,0.7-6.7,0.4-6.7c-0.2,0-0.8,2.9-1.3,6.6
	C152.4,211.3,152.2,214.3,152.5,214.3 M158.9,202.3c0,0.2,6,1.6,13.5,3s13.6,2.4,13.6,2.1c0-0.2-6-1.6-13.5-3
	C165,203,158.9,202.1,158.9,202.3"/>
<path class="st4" d="M182.8,206.9c0.2-0.2-1.4-2.3-3.3-5.1c-1.9-2.7-3.3-5-3.6-4.9c-0.2,0.1,0.9,2.6,2.8,5.4
	C180.7,205.1,182.6,207,182.8,206.9 M141.9,225.5c0.3,0,0.8-3.5,1.2-7.8s0.5-7.8,0.3-7.9c-0.3,0-0.8,3.5-1.2,7.8
	C141.7,222,141.6,225.5,141.9,225.5 M152.5,179.3c-0.1,0,0.1,0.3,0.4,0.4c0.3,0.2,0.8,0.3,1.4,0.4c1.2,0.2,3,0.2,4.8-0.4
	c1.8-0.5,3.4-1.3,4.4-1.8c1.1-0.6,1.7-1.1,1.6-1.2c-0.1-0.1-0.8,0.1-1.9,0.6c-1.1,0.4-2.6,1.1-4.4,1.6c-1.7,0.5-3.3,0.6-4.5,0.6
	c-0.6,0-1.1,0-1.4-0.1C152.7,179.3,152.5,179.3,152.5,179.3 M132.6,201.8c0.2,0.1,1.2-1.9,2.6-4.2c1.3-2.4,2.4-4.2,2.2-4.4
	c-0.2-0.1-1.7,1.5-3,3.9S132.4,201.7,132.6,201.8"/>
<path class="st4" d="M130.4,197.9c0.1,0.2,1.6-0.2,3.3-1.2c1.6-1,2.7-2.2,2.5-2.4s-1.4,0.7-3,1.6
	C131.6,196.9,130.3,197.7,130.4,197.9 M18,374.2c0,0.3,42.4,0.5,94.8,0.5c52.3,0,94.8-0.2,94.8-0.5s-42.4-0.5-94.8-0.5
	S18,373.9,18,374.2"/>
<g>
	<rect x="16.9" y="66.2" class="st0" width="111.8" height="47.7"/>
	<text transform="matrix(1 0 0 1 20.9613 70.1266)" class="st40 st41">直播马上开始了吗？</text>
	<text transform="matrix(1 0 0 1 20.9613 70.1266)" class="st42 st40 st41">直播马上开始了吗？</text>
	<text transform="matrix(1 0 0 1 20.9612 88.2998)" class="st43"><tspan x="0" y="0" class="st44 st40 st41">赶快告诉我怎么进</tspan><tspan x="0" y="18" class="st44 st40 st41">入直播间！</tspan></text>
</g>
<path class="st2" d="M184.3,73.7h-41.8c-14.2,0-21.6,5.4-21.6,19.6v13.1c0,14.2,7.4,19.6,21.6,19.6h9l4.9,12.1l9.2-12.1h18.8
	c14.2,0,25.6-5.4,25.6-19.6v-13C210,79.2,198.5,73.7,184.3,73.7L184.3,73.7z"/>
<rect x="124.7" y="84.8" class="st0" width="79.3" height="36.8"/>
<text transform="matrix(1 0 0 1 128.3603 95.1722)" class="st40 st41">点击右边按钮</text>
<text transform="matrix(1 0 0 1 128.381 95.1726)" class="st42 st40 st41">点击右边按钮</text>
<text transform="matrix(1 0 0 1 140.3603 113.1722)" class="st40 st41">就能进入</text>
<text transform="matrix(1 0 0 1 140.3603 113.1722)" class="st42 st40 st41">就能进入</text>
</svg>
